PathFileType	4	(x/y/z)	S06_PSF_T05
DataRate	CameraRate	NumFrames	NumMarkers	Units	OrigDataRate	OrigDataStartFrame	OrigNumFrames
240	240	4	51	mm	240	199	397
Frame#	Time	Sternum			R.Acromium			L.Acromium			Top.Head			R.ASIS			L.ASIS			R.PSIS			L.PSIS			R.Great.Tro			L.Great.Tro			R.Iliac.Crest			L.Iliac.Crest			V.Sacral			R.Thigh.Upper.Post			R.Thigh.Lower.Ant			R.Thigh.Lower.Post			R.Thigh.Upper.Ant			R.Knee.Lat			R.Knee.Med			R.Shank.Upper.Post			R.Shank.Lower.Ant			R.Shank.Lower.Post			R.Shank.Upper.Ant			R.Ankle.Lat			R.Ankle.Med			R.Heel.Upper			R.Heel.Med			R.Heel.Lat			R.Toe.Lat			R.Toe.Med			R.Toe.Tip			L.Thigh.Upper.Post			L.Thigh.Lower.Ant			L.Thigh.Lower.Post			L.Thigh.Upper.Ant			L.Knee.Lat			L.Knee.Med			L.Shank.Upper.Post			L.Shank.Lower.Ant			L.Shank.Lower.Post			L.Shank.Upper.Ant			L.Ankle.Lat			L.Ankle.Med			L.Heel.Upper			L.Heel.Med			L.Heel.Lat			L.Toe.Lat			L.Toe.Med			L.Toe.Tip			Cervical.Spine			Back			
		X1	Y1	Z1	X2	Y2	Z2	X3	Y3	Z3	X4	Y4	Z4	X5	Y5	Z5	X6	Y6	Z6	X7	Y7	Z7	X8	Y8	Z8	X9	Y9	Z9	X10	Y10	Z10	X11	Y11	Z11	X12	Y12	Z12	X13	Y13	Z13	X14	Y14	Z14	X15	Y15	Z15	X16	Y16	Z16	X17	Y17	Z17	X18	Y18	Z18	X19	Y19	Z19	X20	Y20	Z20	X21	Y21	Z21	X22	Y22	Z22	X23	Y23	Z23	X24	Y24	Z24	X25	Y25	Z25	X26	Y26	Z26	X27	Y27	Z27	X28	Y28	Z28	X29	Y29	Z29	X30	Y30	Z30	X31	Y31	Z31	X32	Y32	Z32	X33	Y33	Z33	X34	Y34	Z34	X35	Y35	Z35	X36	Y36	Z36	X37	Y37	Z37	X38	Y38	Z38	X39	Y39	Z39	X40	Y40	Z40	X41	Y41	Z41	X42	Y42	Z42	X43	Y43	Z43	X44	Y44	Z44	X45	Y45	Z45	X46	Y46	Z46	X47	Y47	Z47	X48	Y48	Z48	X49	Y49	Z49	X50	Y50	Z50	X51	Y51	Z51	

199	0.825	-384.65	1296.5	365.87	-511.73	1499	540.06	-521.52	1505.3	187.98	-479.02	1818.3	364.17	-432.03	1067.2	495.04	-428.85	1057.6	241.74	NaN	NaN	NaN	-632.96	1081.5	320.88	-489.67	992.59	544.21	-521.26	975.16	190.37	-518.22	1140.8	524.16	-501.1	1129.3	205.25	-646.51	1048	366.51	-476.16	738.94	526.61	-418.86	661.6	487.6	-486.52	652.92	504.14	-406.64	749.75	507.71	-464.47	543.34	484.63	-461.02	553.24	356.83	-530.07	318.07	472.6	-475.13	249.83	448.94	-542.13	243.01	453.48	-465.56	323.54	466.38	-525.03	112.92	421.55	-508.94	125.32	338.67	-591.76	76.215	370.23	-582.7	45.874	339.32	-585.16	43.648	404.37	-408.14	36.116	450.37	-379.15	44.506	329.33	-313.88	54.25	378.06	-361.57	750.18	201.98	-291.31	688.33	261.38	-347.67	660.32	213.61	-313.02	781.09	246.58	-352.29	569.68	228.74	-325.29	568.28	351.6	-519.95	428.82	228.24	-509.94	340.33	223.98	-571.08	376.09	239.59	-463.8	394.26	218.28	-624.22	245.14	227.89	-608.42	245.48	316.97	-712.08	255.13	273.89	-729.68	226.25	298.86	-721.15	239.61	238.91	-581.21	131.58	193.56	-577.34	101	308.5	-504.37	81.329	258.32	-570.68	1554.8	366.09	-626.96	1282.5	361.66
200	0.82917	-379.67	1296.9	365.81	-506.38	1499.4	540.01	-516.54	1505.6	187.96	-473.7	1818.6	363.98	-427.27	1067.4	495.14	-423.82	1058.1	241.83	NaN	NaN	NaN	-628.03	1081.7	320.67	-484.98	992.81	544.11	-515.7	975.76	190.22	-513.29	1141.1	524.09	-496.12	1129.7	205.26	-641.57	1048.3	366.3	-472.83	739.15	526.36	-415.95	661.52	487.39	-483.61	653.14	503.98	-403.26	749.57	507.46	-462.42	543.35	484.44	-458.85	553.28	356.57	-529.02	318.31	472.38	-474.34	249.87	448.77	-541.36	243.29	453.29	-464.48	323.52	466.2	-524.76	113.1	421.4	-508.73	125.42	338.51	-591.7	76.393	370.11	-582.84	45.961	339.18	-585.07	43.857	404.31	-408.1	36.132	450.34	-379.09	44.322	329.25	-313.82	54.011	378.01	-354.16	751.92	202.62	-283.84	690.6	262.46	-339.69	662.14	214.35	-306.18	783.17	247.53	-343.72	571.43	229.52	-317.41	570.25	352.34	-509.27	427.72	228.41	-497.79	339.47	223.85	-559.44	374.06	239.56	-452.55	394.17	218.33	-610.37	242.23	227.34	-594.37	242.39	316.37	-698.45	250.03	273.49	-715.34	220.6	298.27	-707.18	234.48	238.43	-564.93	129.88	192.29	-560.22	98.783	307.01	-486.88	81.031	256.65	-565.47	1555.1	366.1	-621.91	1282.9	361.73
201	0.83333	-374.69	1297.1	365.76	-501.04	1499.8	539.96	-511.55	1505.8	187.94	-468.4	1818.8	363.79	-422.52	1067.6	495.23	-418.78	1058.7	241.91	NaN	NaN	NaN	-623.08	1081.9	320.43	-480.3	992.99	544.01	-510.13	976.31	190.07	-508.37	1141.3	524	-491.12	1130.2	205.27	-636.62	1048.5	366.06	-469.54	739.34	526.09	-413.07	661.44	487.17	-480.73	653.35	503.8	-399.9	749.37	507.18	-460.41	543.35	484.25	-456.73	553.3	356.3	-527.99	318.54	472.15	-473.57	249.91	448.58	-540.61	243.57	453.09	-463.42	323.52	466	-524.49	113.28	421.24	-508.54	125.52	338.33	-591.63	76.57	369.99	-582.97	46.042	339.05	-584.99	44.066	404.25	-408.06	36.149	450.3	-379.03	44.145	329.17	-313.75	53.78	377.97	-346.85	753.59	203.28	-276.49	692.78	263.54	-331.84	663.88	215.11	-299.42	785.14	248.48	-335.31	573.12	230.3	-309.68	572.15	353.07	-498.64	426.48	228.6	-485.62	338.51	223.74	-547.77	371.88	239.55	-441.34	393.99	218.4	-596.42	239.19	226.82	-580.18	239.18	315.82	-684.66	244.77	273.16	-700.8	214.79	297.75	-693.04	229.19	238.03	-548.57	128.12	191.04	-542.92	96.53	305.55	-469.29	80.711	254.98	-560.27	1555.4	366.11	-616.85	1283.2	361.79
202	0.8375	-369.7	1297.4	365.7	-495.69	1500.2	539.9	-506.55	1506.1	187.91	-463.11	1819	363.59	-417.77	1067.8	495.32	-413.72	1059.2	241.98	NaN	NaN	NaN	-618.11	1082.1	320.18	-475.63	993.15	543.91	-504.56	976.83	189.91	-503.47	1141.5	523.91	-486.11	1130.5	205.27	-631.66	1048.7	365.81	-466.28	739.52	525.82	-410.24	661.35	486.93	-477.89	653.56	503.61	-396.57	749.17	506.9	-458.45	543.35	484.06	-454.65	553.32	356.02	-526.97	318.76	471.92	-472.82	249.95	448.38	-539.86	243.85	452.9	-462.38	323.51	465.8	-524.23	113.45	421.08	-508.37	125.62	338.15	-591.57	76.745	369.87	-583.1	46.116	338.91	-584.9	44.274	404.18	-408.02	36.167	450.26	-378.98	43.972	329.08	-313.69	53.557	377.92	-339.64	755.18	203.93	-269.28	694.86	264.63	-324.14	665.55	215.89	-292.74	787.02	249.41	-327.05	574.74	231.08	-302.08	573.96	353.79	-488.04	425.11	228.8	-473.44	337.45	223.65	-536.09	369.57	239.58	-430.16	393.71	218.49	-582.38	236.04	226.36	-565.85	235.87	315.32	-670.71	239.36	272.91	-686.05	208.86	297.31	-678.73	223.75	237.69	-532.11	126.3	189.84	-525.45	94.252	304.13	-451.62	80.381	253.33	-555.06	1555.7	366.11	-611.78	1283.5	361.83
